<svg width="324" height="64" viewBox="0 0 324 64" fill="none" xmlns="http://www.w3.org/2000/svg">
<path d="M8.97328 61.4325H0V2.18867H8.96777L8.97328 61.4325ZM16.1024 53.7103V61.4325H45.7857V53.7103H16.1024ZM269.19 32.0343C269.19 36.0725 268.593 39.9597 267.401 43.6931C266.206 47.4266 264.42 50.7345 262.033 53.6087C259.647 56.4857 256.68 58.7669 253.132 60.4552C250.704 61.6082 248.001 62.3686 245.028 62.7337V54.9758C246.716 54.6437 248.257 54.1001 249.647 53.3479C252.141 51.9973 254.183 50.2129 255.774 47.9893C257.365 45.7657 258.532 43.2649 259.275 40.4895C260.019 37.7114 260.39 34.8921 260.39 32.0371C260.39 29.1821 260.019 26.3628 259.275 23.5819C258.532 20.8038 257.365 18.3029 255.774 16.082C254.183 13.8584 252.138 12.0741 249.647 10.7234C247.153 9.37281 244.18 8.70024 240.732 8.70024C237.283 8.70024 234.31 9.37556 231.819 10.7234C229.325 12.0741 227.283 13.8584 225.692 16.082C224.101 18.3056 222.931 20.8038 222.19 23.5819C221.447 26.36 221.076 29.1793 221.076 32.0371C221.076 34.8948 221.447 37.7114 222.19 40.4895C222.934 43.2676 224.101 45.7685 225.692 47.9893C227.283 50.2129 229.325 51.9973 231.819 53.3479C233.209 54.1001 234.75 54.6437 236.438 54.9758V62.7337C233.465 62.3686 230.762 61.6109 228.334 60.4552C224.783 58.7697 221.816 56.4857 219.432 53.6087C217.046 50.7318 215.257 47.4266 214.065 43.6931C212.873 39.9597 212.276 36.0725 212.276 32.0343C212.276 27.9961 212.87 24.109 214.065 20.3755C215.257 16.6421 217.046 13.3369 219.432 10.4599C221.816 7.58295 224.786 5.28798 228.334 3.57224C231.882 1.85924 236.016 1 240.732 1C245.447 1 249.578 1.85924 253.129 3.57224C256.68 5.28798 259.647 7.58295 262.031 10.4599C264.414 13.3369 266.204 16.6421 267.398 20.3755C268.59 24.109 269.187 27.9961 269.187 32.0343H269.19ZM163.512 53.7103H181.734V61.4325H163.512V53.7103ZM181.736 2.18867H163.515V9.91087H181.736V2.18867ZM190.322 61.4325H209.295V53.7103H190.322V61.4325ZM181.736 9.91087V53.7075H190.322V9.91087H181.736ZM190.322 2.18867V9.91087H209.295V2.18867H190.322ZM323.677 17.7127V61.5094H314.109L284.61 16.3072V61.5094H276.049V2.26553H285.229L315.116 48.3352V17.7127H323.677ZM323.677 9.98774V2.26553H315.116V9.98774H323.677ZM98.7005 53.7103V61.4325H52.9176V34.8289H61.8908L61.8853 53.7075H98.7005V53.7103ZM61.8853 27.1067V9.91087H98.4556V2.18867H52.9176V27.1067H61.8853ZM93.7817 27.1067H61.8771V34.8015H93.7817V27.1067ZM156.019 34.8866V61.4847H147.825V55.6127C145.692 58.0175 143.14 59.8156 140.22 60.9658C136.79 62.3164 133.286 63 129.801 63C125.384 63 121.373 62.1737 117.88 60.5431C114.393 58.9152 111.39 56.6888 108.954 53.9272C106.52 51.171 104.643 47.9564 103.372 44.3739C102.103 40.8024 101.461 37.0415 101.461 33.19C101.461 28.9158 102.061 24.7925 103.242 20.9328C104.429 17.0538 106.22 13.6059 108.568 10.685C110.925 7.75316 113.903 5.38681 117.418 3.64636C120.941 1.90591 125.106 1.02471 129.801 1.02471C132.992 1.02471 136.047 1.4008 138.888 2.142C141.745 2.88869 144.338 4.08284 146.592 5.69152C148.849 7.30294 150.787 9.36458 152.301 11.8462C155.152 16.5158 155.554 21.5175 155.554 21.5175H146.578C146.578 21.5175 146.165 18.3551 144.459 15.5056C143.528 13.9518 142.243 12.7137 140.795 11.7337C139.336 10.7482 137.654 9.99597 135.799 9.49909C133.928 8.99947 131.91 8.74691 129.799 8.74691C126.386 8.74691 123.427 9.43321 121.002 10.7838C118.566 12.1427 116.548 13.9573 115.007 16.1726C113.451 18.4072 112.287 20.9959 111.549 23.8674C110.803 26.7581 110.426 29.7586 110.426 32.7865C110.426 35.8144 110.856 38.631 111.704 41.3515C112.546 44.0582 113.801 46.485 115.433 48.5576C117.054 50.622 119.086 52.2883 121.472 53.5181C123.845 54.7425 126.647 55.3629 129.796 55.3629C132.744 55.3629 135.381 54.8852 137.635 53.9464C139.881 53.0075 141.8 51.7008 143.338 50.0647C144.877 48.4231 146.055 46.4712 146.837 44.2586C147.363 42.7707 147.693 41.1703 147.82 39.4957V34.8893H156.014L156.019 34.8866ZM147.825 27.1589H128.742V34.8536H147.825V27.1589Z" fill="white"/>
</svg>
